<svg id="Capa_1" enable-background="new 0 0 510 510" height="512" viewBox="0 0 510 510" width="512"
    xmlns="http://www.w3.org/2000/svg" xmlns:xlink="http://www.w3.org/1999/xlink">
    <linearGradient id="lg1">
        <stop offset="0" stop-color="#f5f8f9" />
        <stop offset=".5213" stop-color="#d9e7ec" />
        <stop offset="1" stop-color="#b6c4cf" />
    </linearGradient>
    <linearGradient id="SVGID_1_" gradientUnits="userSpaceOnUse" x1="176.289" x2="376.004" xlink:href="#lg1"
        y1="444.782" y2="444.782" />
    <linearGradient id="SVGID_2_" gradientUnits="userSpaceOnUse" x1="-12" x2="354.661" xlink:href="#lg1" y1="444.78"
        y2="444.78" />
    <linearGradient id="SVGID_3_" gradientTransform="matrix(1 0 0 -1 0 493.965)" gradientUnits="userSpaceOnUse"
        x1="67.626" x2="536.234" xlink:href="#lg1" y1="276.598" y2="276.598" />
    <linearGradient id="SVGID_4_" gradientUnits="userSpaceOnUse" x1="-6" x2="456" xlink:href="#lg1" y1="217.367"
        y2="217.367" />
    <linearGradient id="lg2">
        <stop offset="0" stop-color="#fee97d" />
        <stop offset=".5341" stop-color="#fed402" />
        <stop offset=".618" stop-color="#fecd0e" />
        <stop offset=".7684" stop-color="#feb92d" />
        <stop offset=".9666" stop-color="#fd9a5f" />
        <stop offset="1" stop-color="#fd9468" />
    </linearGradient>
    <linearGradient id="SVGID_5_" gradientTransform="matrix(1 0 0 -1 0 493.965)" gradientUnits="userSpaceOnUse"
        x1="76.764" x2="522.519" xlink:href="#lg2" y1="155.288" y2="155.288" />
    <linearGradient id="SVGID_6_" gradientUnits="userSpaceOnUse" x1="-48" x2="415.107" xlink:href="#lg2" y1="338.677"
        y2="338.677" />
    <linearGradient id="lg3">
        <stop offset="0" stop-color="#918291" />
        <stop offset=".2667" stop-color="#766a75" />
        <stop offset=".4488" stop-color="#685e68" />
        <stop offset=".5104" stop-color="#625962" />
        <stop offset=".81" stop-color="#4c464c" />
        <stop offset="1" stop-color="#433f43" />
    </linearGradient>
    <linearGradient id="SVGID_7_" gradientUnits="userSpaceOnUse" x1="160.867" x2="227.934" xlink:href="#lg3"
        y1="138.672" y2="138.672" />
    <linearGradient id="SVGID_8_" gradientUnits="userSpaceOnUse" x1="303.393" x2="370.46" xlink:href="#lg3" y1="138.672"
        y2="138.672" />
    <linearGradient id="SVGID_9_" gradientTransform="matrix(1 0 0 -1 0 834.796)" gradientUnits="userSpaceOnUse"
        x1="172.93" x2="320.93" xlink:href="#lg3" y1="590.378" y2="590.378" />
    <linearGradient id="SVGID_10_" gradientTransform="matrix(1 0 0 -1 0 834.796)" gradientUnits="userSpaceOnUse"
        x1="151.822" x2="299.823" xlink:href="#lg3" y1="590.378" y2="590.378" />
    <g>
        <path
            d="m315.434 510h-120.868c-10.094 0-18.277-8.183-18.277-18.277v-112.159h157.422v112.159c0 10.094-8.183 18.277-18.277 18.277z"
            fill="url(#SVGID_1_)" />
        <path
            d="m333.71 379.56v112.162c0 10.094-8.183 18.277-18.277 18.277h-21.743c0-15.23-12.602-27.368-27.826-26.942-3.524.099-7.076.15-10.654.152-28.33.02-55.13-3.06-78.92-8.55v-95.1h157.42z"
            fill="url(#SVGID_2_)" />
        <path
            d="m442.374 286.87c.002 81.739-83.567 147.768-187.149 147.864-103.587.096-187.599-66.14-187.599-147.861 0-33.511 14.129-73.294 37.941-98.089 1.992-2.074 4.108-4.603 6.321-7.51 17.671-23.22 26.796-50.374 26.796-78.007v-4.66c0-54.459 52.076-98.607 116.316-98.607 64.24 0 116.316 44.148 116.316 98.606v4.64c0 27.684 9.155 54.886 26.89 78.132 2.212 2.9 4.328 5.425 6.319 7.502 23.756 24.778 37.848 64.524 37.849 97.99z"
            fill="url(#SVGID_3_)" />
        <path
            d="m404.525 188.88c-1.991-2.077-4.106-4.602-6.319-7.502-17.734-23.246-26.89-50.448-26.89-78.132v-4.64c0-54.459-52.076-98.606-116.316-98.606-6.824 0-13.508.503-20.01 1.458 54.704 8.042 96.306 48.474 96.306 97.148v4.64c0 27.684 9.156 54.886 26.89 78.132 2.212 2.9 4.328 5.425 6.319 7.502 23.756 24.778 37.848 64.524 37.849 97.99 0 7.001-.615 13.886-1.803 20.624-2.279 12.923-16.958 19.225-28.101 12.293-.076-.047-.152-.094-.228-.141-1.894-1.17-3.906-2.593-6.011-4.228-16.87-13.101-25.578-28.431-25.578-44.033 0-19.787-31.937-52.233-71.333-52.233h-78.622c-39.396 0-71.333 32.447-71.333 52.233v.012c0 15.573-8.68 30.876-25.489 43.963-2.105 1.639-4.118 3.064-6.013 4.233-4.555 2.81-8.73 5.966-12.505 9.361 21.145 56.304 83.621 98.591 159.692 104.951.091.008.183.005.274.012 6.547.54 13.191.824 19.921.818 103.582-.096 187.151-66.125 187.149-147.864-.001-33.467-14.093-73.213-37.849-97.991z"
            fill="url(#SVGID_4_)" />
        <path
            d="m433.236 374.871c.002 46.066-79.492 83.278-178.022 83.332-98.536.054-178.45-37.275-178.45-83.331 0-18.886 13.44-41.306 36.09-55.28 1.895-1.169 3.908-2.594 6.013-4.233 16.809-13.086 25.489-28.389 25.489-43.963v-.012c0-19.787 31.937-52.233 71.333-52.233h78.622c39.396 0 71.333 32.447 71.333 52.233 0 15.602 8.709 30.932 25.579 44.033 2.104 1.634 4.117 3.057 6.011 4.228 22.597 13.965 36.002 36.365 36.002 55.226z"
            fill="url(#SVGID_5_)" />
        <path
            d="m397.234 319.646c-1.894-1.17-3.906-2.593-6.011-4.228-16.87-13.101-25.579-28.431-25.579-44.033 0-19.787-31.937-52.233-71.333-52.233h-40.02c39.396 0 71.333 32.447 71.333 52.233 0 15.602 8.709 30.932 25.579 44.033 2.104 1.635 4.117 3.057 6.011 4.228 22.597 13.964 36.002 36.364 36.003 55.225.002 42.931-69.045 78.167-158.195 82.808 6.629.346 13.364.528 20.193.524 98.531-.054 178.024-37.266 178.022-83.332-.001-18.861-13.406-41.261-36.003-55.225z"
            fill="url(#SVGID_6_)" />
        <g>
            <circle cx="183.737" cy="138.672" fill="url(#SVGID_7_)" r="24.713" />
            <circle cx="326.263" cy="138.672" fill="url(#SVGID_8_)" r="24.713" />
        </g>
        <g>
            <path
                d="m292.874 239.937c5.276 5.276 7.547 11.559 5.073 14.033s-8.757.203-14.033-5.073-7.547-11.559-5.073-14.033 8.757-.203 14.033 5.073z"
                fill="url(#SVGID_9_)" />
            <path
                d="m231.159 234.864c2.474 2.474.203 8.757-5.073 14.033s-11.559 7.547-14.033 5.073-.203-8.757 5.073-14.033 11.559-7.547 14.033-5.073z"
                fill="url(#SVGID_10_)" />
        </g>
    </g>
</svg>