<svg width="212" height="277" viewBox="0 0 212 277" fill="none" xmlns="http://www.w3.org/2000/svg">
<rect x="4" y="4" width="203.47" height="268.537" rx="21" fill="#1E1E1E" stroke="#CC3CFD" stroke-width="8"/>
<g clip-path="url(#clip0_79_9)">
<path d="M75.4429 142.693C75.6929 145.276 76.1079 147.199 76.6899 148.461C77.2729 149.724 78.3159 150.357 79.8129 150.357C80.0939 150.357 80.3479 150.31 80.5979 150.263C80.8479 150.31 81.1019 150.357 81.3799 150.357C82.8799 150.357 83.9199 149.724 84.5059 148.461C85.0849 147.199 85.5029 145.276 85.7529 142.693L87.0859 122.754C87.3359 118.868 87.4609 116.078 87.4609 114.385C87.4609 112.081 86.8549 110.284 85.6509 108.994C84.4379 107.705 82.8519 107.059 80.8779 107.059C80.7759 107.059 80.6979 107.082 80.5969 107.086C80.4949 107.082 80.4169 107.059 80.3119 107.059C78.3429 107.059 76.7519 107.705 75.5439 108.995C74.3359 110.285 73.7349 112.081 73.7349 114.385C73.7349 116.077 73.8599 118.867 74.1099 122.754L75.4429 142.693ZM80.6399 157.639C78.7329 157.639 77.1039 158.243 75.7559 159.448C74.4069 160.658 73.7359 162.121 73.7359 163.84C73.7359 165.784 74.4159 167.31 75.7799 168.42C77.1439 169.529 78.7339 170.086 80.5509 170.086C82.3999 170.086 84.0129 169.537 85.3929 168.441C86.7719 167.344 87.4599 165.813 87.4599 163.839C87.4599 162.119 86.7989 160.656 85.4819 159.446C84.1659 158.243 82.5519 157.639 80.6409 157.639H80.6399ZM114.975 157.639C113.068 157.639 111.438 158.243 110.09 159.45C108.741 160.658 108.07 162.121 108.07 163.843C108.07 165.785 108.752 167.311 110.114 168.421C111.479 169.53 113.07 170.087 114.887 170.087C116.736 170.087 118.347 169.538 119.727 168.442C121.106 167.345 121.793 165.812 121.793 163.842C121.793 162.12 121.135 160.657 119.816 159.449C118.498 158.243 116.888 157.639 114.977 157.639H114.975ZM134.451 114.909C132.697 112.246 130.19 110.116 126.993 108.573C123.816 107.045 120.116 106.269 115.993 106.269C111.553 106.269 107.599 107.197 104.25 109.03C100.897 110.865 98.3069 113.219 96.5499 116.027C94.7829 118.849 93.8859 121.686 93.8859 124.462C93.8859 125.945 94.5039 127.328 95.7149 128.571C96.9319 129.82 98.4459 130.453 100.215 130.453C103.235 130.453 105.289 128.682 106.337 125.209C107.291 122.336 108.466 120.145 109.827 118.695C111.106 117.327 113.181 116.633 115.993 116.633C118.418 116.633 120.331 117.313 121.848 118.714C123.343 120.095 124.072 121.744 124.072 123.754C124.08 124.727 123.835 125.685 123.361 126.535C122.855 127.44 122.226 128.27 121.493 129.004C120.716 129.782 119.434 130.952 117.681 132.486C115.639 134.276 113.992 135.843 112.792 137.144C111.517 138.53 110.495 140.13 109.772 141.869C109.014 143.662 108.628 145.806 108.628 148.234C108.628 150.309 109.207 151.916 110.35 153.009C111.481 154.091 112.89 154.643 114.539 154.643C117.692 154.643 119.674 152.921 120.264 149.696C120.563 148.357 120.789 147.42 120.94 146.886C121.077 146.401 121.274 145.905 121.528 145.408C121.774 144.926 122.166 144.377 122.691 143.778C123.24 143.147 123.98 142.405 124.889 141.577C128.286 138.538 130.684 136.338 132.014 135.037C133.386 133.697 134.581 132.085 135.569 130.248C136.587 128.367 137.1 126.153 137.1 123.669C137.1 120.531 136.21 117.583 134.455 114.91" fill="#3A8DFE"/>
</g>
<defs>
<clipPath id="clip0_79_9">
<rect width="64" height="64" fill="white" transform="translate(73.7349 106.269)"/>
</clipPath>
</defs>
</svg>
